<svg width="1796" height="3385" viewBox="0 0 1796 3385" fill="none" xmlns="http://www.w3.org/2000/svg">
<path d="M623 160H823V543.572L806 558.363L823 570.195V927.637L820.842 1226.9L804 1373.82L821.13 1473.41L822.17 2541.3L807 2549.93L822.247 2559.05L822.548 2871.13L806 2911.07L822.668 2995.87L823 3340H623V2209.5L643 2084.76L623 1930.94V1604.07L635 1598.64L623 1565.12V397.637L635 351.293L623 301.991V160Z" fill="#744500"/>
<path d="M0 3288L327.778 3188H410.288L467.932 3193L487.147 3188L526.706 3202L566.266 3188H1164.18L1199.22 3210L1280.6 3188H1492.52L1796 3283V3385H0V3288Z" fill="#563400"/>
<ellipse cx="664" cy="3238.5" rx="17" ry="16.5" fill="#ACACAC"/>
<ellipse cx="782" cy="3335.5" rx="17" ry="16.5" fill="#ACACAC"/>
<ellipse cx="664" cy="3335.5" rx="17" ry="16.5" fill="#ACACAC"/>
<ellipse cx="782" cy="3238.5" rx="17" ry="16.5" fill="#ACACAC"/>
<path d="M623 19L719.5 9.04926L1030 5.99015L1137 25L1215.5 4.16256L1426.75 2.08128L1473 15L1494 1.41872L1630 0L1638 64.5L1621 87L1638 124V187H1163.5L1115 182L1015.5 187H623V19Z" fill="#885200"/>
<ellipse cx="673" cy="68.5" rx="17" ry="16.5" fill="#ACACAC"/>
<ellipse cx="778" cy="68.5" rx="17" ry="16.5" fill="#ACACAC"/>
<ellipse cx="778" cy="143.5" rx="17" ry="16.5" fill="#ACACAC"/>
<ellipse cx="673" cy="143.5" rx="17" ry="16.5" fill="#ACACAC"/>
</svg>
