<svg width="1796" height="3391" viewBox="0 0 1796 3391" fill="none" xmlns="http://www.w3.org/2000/svg">
<path d="M623 166H823V549.572L806 564.363L823 576.195V933.637L820.842 1232.9L804 1379.82L821.13 1479.41L822.17 2547.3L807 2555.93L822.247 2565.05L822.548 2877.13L806 2917.07L822.668 3001.87L823 3346H623V2215.5L643 2090.76L623 1936.94V1610.07L635 1604.64L623 1571.12V403.637L635 357.293L623 307.991V166Z" fill="#744500"/>
<path d="M0 3294L327.778 3194H410.288L467.932 3199L487.147 3194L526.706 3208L566.266 3194H1164.18L1199.22 3216L1280.6 3194H1492.52L1796 3289V3391H0V3294Z" fill="#563400"/>
<ellipse cx="664" cy="3244.5" rx="17" ry="16.5" fill="#ACACAC"/>
<ellipse cx="782" cy="3341.5" rx="17" ry="16.5" fill="#ACACAC"/>
<ellipse cx="664" cy="3341.5" rx="17" ry="16.5" fill="#ACACAC"/>
<ellipse cx="782" cy="3244.5" rx="17" ry="16.5" fill="#ACACAC"/>
<path d="M623 25L719.5 15.0493L1030 11.9901L1137 31L1215.5 10.1626L1426.75 8.08128L1473 21L1494 7.41872L1630 6L1638 70.5L1621 93L1638 130V193H1163.5L1115 188L1015.5 193H623V25Z" fill="#885200"/>
<ellipse cx="673" cy="74.5" rx="17" ry="16.5" fill="#ACACAC"/>
<ellipse cx="778" cy="74.5" rx="17" ry="16.5" fill="#ACACAC"/>
<ellipse cx="778" cy="149.5" rx="17" ry="16.5" fill="#ACACAC"/>
<ellipse cx="673" cy="149.5" rx="17" ry="16.5" fill="#ACACAC"/>
<path d="M1251 0H1286L1308 198H1272.5L1251 0Z" fill="#CBCBCB"/>
<path d="M1251 0H1286L1308 198H1272.5L1251 0Z" fill="#CBCBCB"/>
<path d="M1251 0H1286L1308 198H1272.5L1251 0Z" fill="#8A8A8A"/>
<path d="M1251 0H1286L1308 198H1272.5L1251 0Z" fill="#989898"/>
<path d="M1338 0H1373L1395 198H1359.5L1338 0Z" fill="#CBCBCB"/>
<path d="M1338 0H1373L1395 198H1359.5L1338 0Z" fill="#CBCBCB"/>
<path d="M1338 0H1373L1395 198H1359.5L1338 0Z" fill="#262626"/>
<path d="M1338 0H1373L1395 198H1359.5L1338 0Z" fill="#C1C1C1"/>
<path d="M1295 0H1330L1352 198H1316.5L1295 0Z" fill="#CBCBCB"/>
<path d="M1295 0H1330L1352 198H1316.5L1295 0Z" fill="#CBCBCB"/>
<path d="M1295 0H1330L1352 198H1316.5L1295 0Z" fill="#CBCBCB"/>
<path d="M1295 0H1330L1352 198H1316.5L1295 0Z" fill="#D3D3D3"/>
<path d="M1209 0H1244L1266 198H1230.5L1209 0Z" fill="#CBCBCB"/>
<path d="M1209 0H1244L1266 198H1230.5L1209 0Z" fill="#CBCBCB"/>
<path d="M1209 0H1244L1266 198H1230.5L1209 0Z" fill="#CBCBCB"/>
<path d="M1209 0H1244L1266 198H1230.5L1209 0Z" fill="#C7C7C7"/>
<path d="M1400.5 0H1428.5L1438 677H1411.5L1400.5 0Z" fill="#CBCBCB"/>
<path d="M1400.5 0H1428.5L1438 677H1411.5L1400.5 0Z" fill="#CBCBCB"/>
<path d="M1400.5 0H1428.5L1438 677H1411.5L1400.5 0Z" fill="#CBCBCB"/>
<path d="M1400.5 0H1428.5L1438 677H1411.5L1400.5 0Z" fill="#C7C7C7"/>
</svg>
