<svg width="601" height="1181" viewBox="0 0 601 1181" fill="none" xmlns="http://www.w3.org/2000/svg">
<path d="M149 0H197V1181H149V0Z" fill="black"/>
<path d="M0 1133H505V1181H0V1133Z" fill="black"/>
<path d="M164 207.703L379.083 4.08688e-05L412.426 34.5284L197.344 242.231L164 207.703Z" fill="black"/>
<path d="M149 0H589V48H149V0Z" fill="black"/>
<path d="M465 0H475V48H465V0Z" fill="black"/>
<path d="M495 0H505V48H495V0Z" fill="black"/>
<path d="M505 0H515V48H505V0Z" fill="black"/>
<path d="M515 0H525V48H515V0Z" fill="black"/>
<path d="M525 0H535V48H525V0Z" fill="black"/>
<path d="M535 0H545V48H535V0Z" fill="black"/>
<path d="M485 0H495V48H485V0Z" fill="black"/>
<path d="M475 0H485V48H475V0Z" fill="black"/>
<path d="M505 48H515V189H505V48Z" fill="black"/>
<path d="M601 270.5C601 318.273 560.482 357 510.5 357C460.518 357 420 318.273 420 270.5C420 222.727 460.518 184 510.5 184C560.482 184 601 222.727 601 270.5Z" fill="black"/>
</svg>
