<svg width="645" height="1181" viewBox="0 0 645 1181" fill="none" xmlns="http://www.w3.org/2000/svg">
<path d="M589 534.5C589 637.501 553.63 721 510 721C466.37 721 431 637.501 431 534.5C431 431.499 466.37 348 510 348C553.63 348 589 431.499 589 534.5Z" fill="black"/>
<path d="M149 0H197V1181H149V0Z" fill="black"/>
<path d="M0 1133H505V1181H0V1133Z" fill="black"/>
<path d="M164 207.703L379.083 4.08688e-05L412.426 34.5284L197.344 242.231L164 207.703Z" fill="black"/>
<path d="M149 0H589V48H149V0Z" fill="black"/>
<path d="M465 0H475V48H465V0Z" fill="black"/>
<path d="M495 0H505V48H495V0Z" fill="black"/>
<path d="M505 0H515V48H505V0Z" fill="black"/>
<path d="M515 0H525V48H515V0Z" fill="black"/>
<path d="M525 0H535V48H525V0Z" fill="black"/>
<path d="M535 0H545V48H535V0Z" fill="black"/>
<path d="M485 0H495V48H485V0Z" fill="black"/>
<path d="M475 0H485V48H475V0Z" fill="black"/>
<path d="M505 48H515V189H505V48Z" fill="black"/>
<path d="M601 270.5C601 318.273 560.482 357 510.5 357C460.518 357 420 318.273 420 270.5C420 222.727 460.518 184 510.5 184C560.482 184 601 222.727 601 270.5Z" fill="black"/>
<path d="M606.228 458.128C634.153 511.77 650.596 558.479 642.956 562.457C635.316 566.434 606.486 526.172 578.561 472.53C550.637 418.888 534.193 372.178 541.833 368.201C549.474 364.224 578.304 404.486 606.228 458.128Z" fill="black"/>
<path d="M420 458.128C392.076 511.77 375.632 558.479 383.272 562.457C390.912 566.434 419.743 526.172 447.667 472.53C475.591 418.888 492.035 372.178 484.395 368.201C476.755 364.224 447.924 404.486 420 458.128Z" fill="black"/>
</svg>
