<svg width="1796" height="3391" viewBox="0 0 1796 3391" fill="none" xmlns="http://www.w3.org/2000/svg">
<path d="M623 166H823V549.572L806 564.363L823 576.195V933.637L820.842 1232.9L804 1379.82L821.13 1479.41L822.17 2547.3L807 2555.93L822.247 2565.05L822.548 2877.13L806 2917.07L822.668 3001.87L823 3346H623V2215.5L643 2090.76L623 1936.94V1610.07L635 1604.64L623 1571.12V403.637L635 357.293L623 307.991V166Z" fill="#744500"/>
<path d="M0 3294L327.778 3194H410.288L467.932 3199L487.147 3194L526.706 3208L566.266 3194H1164.18L1199.22 3216L1280.6 3194H1492.52L1796 3289V3391H0V3294Z" fill="#563400"/>
<ellipse cx="664" cy="3244.5" rx="17" ry="16.5" fill="#ACACAC"/>
<ellipse cx="782" cy="3341.5" rx="17" ry="16.5" fill="#ACACAC"/>
<ellipse cx="664" cy="3341.5" rx="17" ry="16.5" fill="#ACACAC"/>
<ellipse cx="782" cy="3244.5" rx="17" ry="16.5" fill="#ACACAC"/>
<path d="M623 25L719.5 15.0493L1030 11.9901L1137 31L1215.5 10.1626L1426.75 8.08128L1473 21L1494 7.41872L1630 6L1638 70.5L1621 93L1638 130V193H1163.5L1115 188L1015.5 193H623V25Z" fill="#885200"/>
<ellipse cx="673" cy="74.5" rx="17" ry="16.5" fill="#ACACAC"/>
<ellipse cx="778" cy="74.5" rx="17" ry="16.5" fill="#ACACAC"/>
<ellipse cx="778" cy="149.5" rx="17" ry="16.5" fill="#ACACAC"/>
<ellipse cx="673" cy="149.5" rx="17" ry="16.5" fill="#ACACAC"/>
<path d="M1251 0H1286L1308 198H1272.5L1251 0Z" fill="#CBCBCB"/>
<path d="M1251 0H1286L1308 198H1272.5L1251 0Z" fill="#CBCBCB"/>
<path d="M1251 0H1286L1308 198H1272.5L1251 0Z" fill="#8A8A8A"/>
<path d="M1251 0H1286L1308 198H1272.5L1251 0Z" fill="#989898"/>
<path d="M1338 0H1373L1395 198H1359.5L1338 0Z" fill="#CBCBCB"/>
<path d="M1338 0H1373L1395 198H1359.5L1338 0Z" fill="#CBCBCB"/>
<path d="M1338 0H1373L1395 198H1359.5L1338 0Z" fill="#262626"/>
<path d="M1338 0H1373L1395 198H1359.5L1338 0Z" fill="#C1C1C1"/>
<path d="M1295 0H1330L1352 198H1316.5L1295 0Z" fill="#CBCBCB"/>
<path d="M1295 0H1330L1352 198H1316.5L1295 0Z" fill="#CBCBCB"/>
<path d="M1295 0H1330L1352 198H1316.5L1295 0Z" fill="#CBCBCB"/>
<path d="M1295 0H1330L1352 198H1316.5L1295 0Z" fill="#D3D3D3"/>
<path d="M1209 0H1244L1266 198H1230.5L1209 0Z" fill="#CBCBCB"/>
<path d="M1209 0H1244L1266 198H1230.5L1209 0Z" fill="#CBCBCB"/>
<path d="M1209 0H1244L1266 198H1230.5L1209 0Z" fill="#CBCBCB"/>
<path d="M1209 0H1244L1266 198H1230.5L1209 0Z" fill="#C7C7C7"/>
<path d="M1400.5 0H1428.5L1438 677H1411.5L1400.5 0Z" fill="#CBCBCB"/>
<path d="M1400.5 0H1428.5L1438 677H1411.5L1400.5 0Z" fill="#CBCBCB"/>
<path d="M1400.5 0H1428.5L1438 677H1411.5L1400.5 0Z" fill="#CBCBCB"/>
<path d="M1400.5 0H1428.5L1438 677H1411.5L1400.5 0Z" fill="#C7C7C7"/>
<path d="M1370.95 1149.96C1382.63 1135.65 1379.26 1090.28 1376.11 1069.38C1387.22 1070.53 1422.37 1075.93 1474.1 1088.31C1467.89 1104.73 1475.51 1142.88 1480.1 1159.91L1370.95 1149.96Z" fill="#FFE6A5"/>
<path d="M1411.8 1104.65C1229.24 1027.99 1335.73 802.313 1411.8 699.059L1426.68 670C1424.79 678.244 1432.21 687.188 1448.65 699.059C1549.57 773.253 1596.06 875.476 1606.69 917.314C1617.8 1011.7 1594.36 1181.32 1411.8 1104.65Z" stroke="#C7C7C7" stroke-width="26"/>
<path d="M1406 525L1442 533.837V563L1406 555.047V525Z" fill="#ACACAC"/>
<path d="M1406 563L1442 571.837V601L1406 593.047V563Z" fill="#D3D3D3"/>
<path d="M1406 601L1442 609.837V639L1406 631.047V601Z" fill="#ACACAC"/>
<path d="M1406 639L1442 647.837V677L1406 669.047V639Z" fill="#8A8A8A"/>
<ellipse cx="1492.75" cy="909.744" rx="164" ry="208.5" transform="rotate(15.5 1492.75 909.744)" fill="#FFE6A5"/>
<rect x="1425" y="884.165" width="59" height="14" transform="rotate(-29.2423 1425 884.165)" fill="black"/>
<rect x="1425" y="884.165" width="59" height="14" transform="rotate(-29.2423 1425 884.165)" fill="black"/>
<path d="M1474.11 898.603L1445.51 847L1433.27 853.787L1461.87 905.39L1474.11 898.603Z" fill="black"/>
<rect x="1365" y="1150" width="119" height="57" fill="#FFE6A5"/>
<ellipse cx="1179.5" cy="1741.5" rx="38.5" ry="37.5" fill="#FFE6A5"/>
<rect x="1514.09" y="905.426" width="59" height="14" transform="rotate(-29.2423 1514.09 905.426)" fill="black"/>
<rect x="1514.09" y="905.426" width="59" height="14" transform="rotate(-29.2423 1514.09 905.426)" fill="black"/>
<path d="M1229.41 1170.78L1260.91 1177.73L1286.46 1193.45L1302.53 1215.97L1303.36 1242.34L1229.82 1749.98L1135 1734.96L1229.41 1170.78Z" fill="#ACACAC"/>
<ellipse rx="38.5" ry="37.5" transform="matrix(-1 0 0 1 1661.5 1746.5)" fill="#FFE6A5"/>
<path d="M1616.07 1170.78L1584.57 1177.72L1559.01 1193.38L1542.92 1215.8L1542.07 1242.03L1615.19 1747.01L1710.01 1731.99L1616.07 1170.78Z" fill="#ACACAC"/>
<path d="M1229 1171L1338 1150H1366.5L1384 1173L1399 1184L1424.25 1188L1450 1185L1467 1176L1482 1150H1521L1616 1170L1623 1480.5L1610 1704L1616 1873H1229L1224 1771L1232 1336L1229 1171Z" fill="#C4C4C4"/>
<path d="M1563.21 919.864L1534.6 868.262L1522.36 875.049L1550.96 926.652L1563.21 919.864Z" fill="black"/>
<rect x="1425.04" y="982.062" width="101" height="15" transform="rotate(12.5 1425.04 982.062)" fill="black"/>
</svg>
